<svg xmlns="http://www.w3.org/2000/svg" width="1280" height="800" viewBox="0 0 1280 800"
     font-family="-apple-system, system-ui, sans-serif" fill="#fff" stroke="#000" stroke-width="1.5">
  <rect x="0" y="0" width="1280" height="800" />

  <!-- sidebar stub for orientation -->
  <rect x="0" y="0" width="280" height="800" fill="#fff" stroke="#666" />
  <text x="16" y="30" font-size="14" font-weight="700" stroke="none" fill="#666">Paperclip App</text>
  <text x="16" y="93" font-size="12" letter-spacing="1" stroke="none" fill="#999">WORK</text>
  <text x="24" y="121" font-size="14" stroke="none" fill="#999">Artifacts</text>
  <rect x="8" y="136" width="264" height="32" fill="#e6e6e6" stroke="none" />
  <text x="24" y="157" font-size="14" stroke="none" fill="#000">Projects</text>

  <!-- ===== CONTENT ===== -->
  <!-- breadcrumb + title -->
  <text x="320" y="44" font-size="12" letter-spacing="1" stroke="none" fill="#666">PROJECTS</text>
  <text x="320" y="80" font-size="28" font-weight="700" stroke="none" fill="#000">Projects</text>

  <!-- toolbar: sort + add -->
  <g transform="translate(320,104)">
    <rect width="120" height="32" rx="4" fill="#fff" stroke="#666" />
    <text x="14" y="21" font-size="12" stroke="none" fill="#666">Sort: Name</text>
  </g>
  <g transform="translate(816,104)">
    <rect width="120" height="32" rx="4" fill="#000" />
    <text x="60" y="21" font-size="12" text-anchor="middle" stroke="none" fill="#fff">+ Add project</text>
  </g>

  <!-- column header -->
  <g transform="translate(320,160)">
    <rect width="936" height="32" fill="#f4f4f4" stroke="#666" />
    <text x="64" y="21" font-size="12" font-weight="600" stroke="none" fill="#000">Project</text>
    <text x="560" y="21" font-size="12" font-weight="600" stroke="none" fill="#000">Tasks</text>
    <text x="680" y="21" font-size="12" font-weight="600" stroke="none" fill="#000">Budget</text>
    <text x="840" y="21" font-size="12" font-weight="600" stroke="none" fill="#000">Status</text>
  </g>

  <!-- rows -->
  <!-- row 1 -->
  <g transform="translate(320,192)">
    <rect width="936" height="72" fill="#fff" stroke="#666" />
    <rect x="16" y="20" width="32" height="28" rx="6" fill="#e6e6e6" stroke="#666" />
    <path d="M24 32 l7 0 l2 -3 l7 0 l0 14 l-16 0 z" fill="#fff" stroke="#666" />
    <text x="64" y="32" font-size="14" font-weight="600" stroke="none" fill="#000">Onboarding v3</text>
    <text x="64" y="52" font-size="12" stroke="none" fill="#666">Revamp the first-run onboarding and CEO chat flow.</text>
    <text x="560" y="42" font-size="14" stroke="none" fill="#666">24</text>
    <text x="680" y="42" font-size="14" stroke="none" fill="#666">$1,200 / mo</text>
    <g transform="translate(840,28)"><rect width="64" height="20" rx="10" fill="#fff" stroke="#666" /><text x="32" y="14" font-size="12" text-anchor="middle" stroke="none" fill="#666">Active</text></g>
    <polyline points="908,32 916,40 908,48" fill="none" />
  </g>
  <!-- row 2 -->
  <g transform="translate(320,264)">
    <rect width="936" height="72" fill="#fff" stroke="#666" />
    <rect x="16" y="20" width="32" height="28" rx="6" fill="#e6e6e6" stroke="#666" />
    <path d="M24 32 l7 0 l2 -3 l7 0 l0 14 l-16 0 z" fill="#fff" stroke="#666" />
    <text x="64" y="32" font-size="14" font-weight="600" stroke="none" fill="#000">NUX hardening</text>
    <text x="64" y="52" font-size="12" stroke="none" fill="#666">Stabilize BoardChat, fix end-to-end QA failures.</text>
    <text x="560" y="42" font-size="14" stroke="none" fill="#666">11</text>
    <text x="680" y="42" font-size="14" stroke="none" fill="#666">—</text>
    <g transform="translate(840,28)"><rect width="64" height="20" rx="10" fill="#fff" stroke="#666" /><text x="32" y="14" font-size="12" text-anchor="middle" stroke="none" fill="#666">Active</text></g>
    <polyline points="908,32 916,40 908,48" fill="none" />
  </g>
  <!-- row 3 -->
  <g transform="translate(320,336)">
    <rect width="936" height="72" fill="#fff" stroke="#666" />
    <rect x="16" y="20" width="32" height="28" rx="6" fill="#e6e6e6" stroke="#666" />
    <path d="M24 32 l7 0 l2 -3 l7 0 l0 14 l-16 0 z" fill="#fff" stroke="#666" />
    <text x="64" y="32" font-size="14" font-weight="600" stroke="none" fill="#000">Billing rework</text>
    <text x="64" y="52" font-size="12" stroke="none" fill="#666">Migrate budgets and per-project spend tracking.</text>
    <text x="560" y="42" font-size="14" stroke="none" fill="#666">7</text>
    <text x="680" y="42" font-size="14" stroke="none" fill="#666">$500 / mo</text>
    <g transform="translate(840,28)"><rect width="64" height="20" rx="10" fill="#e6e6e6" stroke="#666" /><text x="32" y="14" font-size="12" text-anchor="middle" stroke="none" fill="#666">Paused</text></g>
    <polyline points="908,32 916,40 908,48" fill="none" />
  </g>
  <!-- row 4 -->
  <g transform="translate(320,408)">
    <rect width="936" height="72" fill="#fff" stroke="#666" />
    <rect x="16" y="20" width="32" height="28" rx="6" fill="#e6e6e6" stroke="#666" />
    <path d="M24 32 l7 0 l2 -3 l7 0 l0 14 l-16 0 z" fill="#fff" stroke="#666" />
    <text x="64" y="32" font-size="14" font-weight="600" stroke="none" fill="#000">Docs site</text>
    <text x="64" y="52" font-size="12" stroke="none" fill="#666">Public documentation and changelog.</text>
    <text x="560" y="42" font-size="14" stroke="none" fill="#666">3</text>
    <text x="680" y="42" font-size="14" stroke="none" fill="#666">—</text>
    <g transform="translate(840,28)"><rect width="64" height="20" rx="10" fill="#fff" stroke="#666" /><text x="32" y="14" font-size="12" text-anchor="middle" stroke="none" fill="#666">Active</text></g>
    <polyline points="908,32 916,40 908,48" fill="none" />
  </g>

  <!-- annotations -->
  <g data-region="annotations">
    <rect x="336" y="212" width="48" height="40" fill="none" stroke="#d33" stroke-dasharray="6 3" />
    <g transform="translate(312,232)"><circle r="11" fill="#fff" stroke="#d33" stroke-dasharray="4 2" /><text y="4" font-size="12" font-weight="700" text-anchor="middle" stroke="none" fill="#d33">1</text></g>
    <rect x="384" y="216" width="460" height="32" fill="none" stroke="#d33" stroke-dasharray="6 3" />
    <g transform="translate(536,206)"><circle r="11" fill="#fff" stroke="#d33" stroke-dasharray="4 2" /><text y="4" font-size="12" font-weight="700" text-anchor="middle" stroke="none" fill="#d33">2</text></g>
    <rect x="864" y="216" width="120" height="32" fill="none" stroke="#d33" stroke-dasharray="6 3" />
    <g transform="translate(1004,232)"><circle r="11" fill="#fff" stroke="#d33" stroke-dasharray="4 2" /><text y="4" font-size="12" font-weight="700" text-anchor="middle" stroke="none" fill="#d33">3</text></g>
  </g>
</svg>
