<svg xmlns="http://www.w3.org/2000/svg" width="1280" height="800" viewBox="0 0 1280 800"
     font-family="-apple-system, system-ui, sans-serif" fill="#fff" stroke="#000" stroke-width="1.5">
  <rect x="0" y="0" width="1280" height="800" />

  <!-- sidebar stub -->
  <rect x="0" y="0" width="280" height="800" fill="#fff" stroke="#666" />
  <text x="16" y="30" font-size="14" font-weight="700" stroke="none" fill="#666">Paperclip App</text>
  <text x="16" y="120" font-size="12" letter-spacing="1" stroke="none" fill="#999">AGENTS</text>
  <text x="24" y="148" font-size="14" stroke="none" fill="#999">ClaudeCoder · 2 live</text>
  <text x="24" y="176" font-size="14" stroke="none" fill="#999">QA-Bot · 1 live</text>
  <text x="24" y="204" font-size="14" stroke="none" fill="#000">See all agents→</text>

  <!-- ===== CONTENT ===== -->
  <text x="320" y="44" font-size="12" letter-spacing="1" stroke="none" fill="#666">AGENTS</text>
  <text x="320" y="80" font-size="28" font-weight="700" stroke="none" fill="#000">All agents</text>

  <g transform="translate(320,104)">
    <rect width="140" height="32" rx="4" fill="#fff" stroke="#666" />
    <text x="14" y="21" font-size="12" stroke="none" fill="#666">Filter: All status</text>
  </g>
  <g transform="translate(816,104)">
    <rect width="120" height="32" rx="4" fill="#000" />
    <text x="60" y="21" font-size="12" text-anchor="middle" stroke="none" fill="#fff">+ New agent</text>
  </g>

  <!-- rows: each shows identity + the key actions from the detail page -->
  <!-- row 1 -->
  <g transform="translate(320,160)">
    <rect width="936" height="88" fill="#fff" stroke="#666" />
    <circle cx="40" cy="44" r="16" fill="#e6e6e6" stroke="#666" />
    <text x="72" y="36" font-size="14" font-weight="600" stroke="none" fill="#000">ClaudeCoder</text>
    <text x="72" y="56" font-size="12" stroke="none" fill="#666">Software Engineer · $42 / $200 mo · active 2m ago</text>
    <!-- live -->
    <circle cx="300" cy="32" r="3" fill="#000" stroke="none" />
    <text x="310" y="36" font-size="12" stroke="none" fill="#666">2 live</text>
    <!-- key actions -->
    <g transform="translate(456,28)"><rect width="112" height="32" rx="4" fill="#fff" stroke="#666" /><text x="56" y="21" font-size="12" text-anchor="middle" stroke="none" fill="#000">+ Assign Task</text></g>
    <g transform="translate(576,28)"><rect width="120" height="32" rx="4" fill="#fff" stroke="#666" /><text x="60" y="21" font-size="12" text-anchor="middle" stroke="none" fill="#000">▷ Run Heartbeat</text></g>
    <g transform="translate(704,28)"><rect width="96" height="32" rx="4" fill="#fff" stroke="#666" /><text x="48" y="21" font-size="12" text-anchor="middle" stroke="none" fill="#000">❙❙ Pause</text></g>
    <g transform="translate(808,28)"><rect width="64" height="20" rx="10" fill="#fff" stroke="#666" /><text x="32" y="14" font-size="12" text-anchor="middle" stroke="none" fill="#666">active</text></g>
    <text x="900" y="48" font-size="16" stroke="none" fill="#666">⋯</text>
  </g>
  <!-- row 2 -->
  <g transform="translate(320,248)">
    <rect width="936" height="88" fill="#fff" stroke="#666" />
    <circle cx="40" cy="44" r="16" fill="#e6e6e6" stroke="#666" />
    <text x="72" y="36" font-size="14" font-weight="600" stroke="none" fill="#000">QA-Bot</text>
    <text x="72" y="56" font-size="12" stroke="none" fill="#666">Quality Assurance · $18 / $100 mo · active 5m ago</text>
    <circle cx="300" cy="32" r="3" fill="#000" stroke="none" />
    <text x="310" y="36" font-size="12" stroke="none" fill="#666">1 live</text>
    <g transform="translate(456,28)"><rect width="112" height="32" rx="4" fill="#fff" stroke="#666" /><text x="56" y="21" font-size="12" text-anchor="middle" stroke="none" fill="#000">+ Assign Task</text></g>
    <g transform="translate(576,28)"><rect width="120" height="32" rx="4" fill="#fff" stroke="#666" /><text x="60" y="21" font-size="12" text-anchor="middle" stroke="none" fill="#000">▷ Run Heartbeat</text></g>
    <g transform="translate(704,28)"><rect width="96" height="32" rx="4" fill="#fff" stroke="#666" /><text x="48" y="21" font-size="12" text-anchor="middle" stroke="none" fill="#000">❙❙ Pause</text></g>
    <g transform="translate(808,28)"><rect width="64" height="20" rx="10" fill="#fff" stroke="#666" /><text x="32" y="14" font-size="12" text-anchor="middle" stroke="none" fill="#666">active</text></g>
    <text x="900" y="48" font-size="16" stroke="none" fill="#666">⋯</text>
  </g>
  <!-- row 3 (paused) -->
  <g transform="translate(320,336)">
    <rect width="936" height="88" fill="#fff" stroke="#666" />
    <circle cx="40" cy="44" r="16" fill="#e6e6e6" stroke="#666" />
    <text x="72" y="36" font-size="14" font-weight="600" stroke="none" fill="#000">Designer</text>
    <text x="72" y="56" font-size="12" stroke="none" fill="#666">Product Design · $0 / $80 mo · active 3d ago</text>
    <g transform="translate(456,28)"><rect width="112" height="32" rx="4" fill="#fff" stroke="#666" /><text x="56" y="21" font-size="12" text-anchor="middle" stroke="none" fill="#000">+ Assign Task</text></g>
    <g transform="translate(576,28)"><rect width="120" height="32" rx="4" fill="#fff" stroke="#666" /><text x="60" y="21" font-size="12" text-anchor="middle" stroke="none" fill="#000">▷ Run Heartbeat</text></g>
    <g transform="translate(704,28)"><rect width="96" height="32" rx="4" fill="#fff" stroke="#666" /><text x="48" y="21" font-size="12" text-anchor="middle" stroke="none" fill="#000">▷ Resume</text></g>
    <g transform="translate(808,28)"><rect width="64" height="20" rx="10" fill="#e6e6e6" stroke="#666" /><text x="32" y="14" font-size="12" text-anchor="middle" stroke="none" fill="#666">paused</text></g>
    <text x="900" y="48" font-size="16" stroke="none" fill="#666">⋯</text>
  </g>
  <!-- row 4 -->
  <g transform="translate(320,424)">
    <rect width="936" height="88" fill="#fff" stroke="#666" />
    <circle cx="40" cy="44" r="16" fill="#e6e6e6" stroke="#666" />
    <text x="72" y="36" font-size="14" font-weight="600" stroke="none" fill="#000">CTO</text>
    <text x="72" y="56" font-size="12" stroke="none" fill="#666">Chief Technology Officer · $61 / $300 mo · active 1h ago</text>
    <g transform="translate(456,28)"><rect width="112" height="32" rx="4" fill="#fff" stroke="#666" /><text x="56" y="21" font-size="12" text-anchor="middle" stroke="none" fill="#000">+ Assign Task</text></g>
    <g transform="translate(576,28)"><rect width="120" height="32" rx="4" fill="#fff" stroke="#666" /><text x="60" y="21" font-size="12" text-anchor="middle" stroke="none" fill="#000">▷ Run Heartbeat</text></g>
    <g transform="translate(704,28)"><rect width="96" height="32" rx="4" fill="#fff" stroke="#666" /><text x="48" y="21" font-size="12" text-anchor="middle" stroke="none" fill="#000">❙❙ Pause</text></g>
    <g transform="translate(808,28)"><rect width="64" height="20" rx="10" fill="#fff" stroke="#666" /><text x="32" y="14" font-size="12" text-anchor="middle" stroke="none" fill="#666">active</text></g>
    <text x="900" y="48" font-size="16" stroke="none" fill="#666">⋯</text>
  </g>

  <!-- annotations -->
  <g data-region="annotations">
    <rect x="320" y="184" width="392" height="40" fill="none" stroke="#d33" stroke-dasharray="6 3" />
    <g transform="translate(312,204)"><circle r="11" fill="#fff" stroke="#d33" stroke-dasharray="4 2" /><text y="4" font-size="12" font-weight="700" text-anchor="middle" stroke="none" fill="#d33">1</text></g>
    <rect x="772" y="184" width="448" height="40" fill="none" stroke="#d33" stroke-dasharray="6 3" />
    <g transform="translate(1232,204)"><circle r="11" fill="#fff" stroke="#d33" stroke-dasharray="4 2" /><text y="4" font-size="12" font-weight="700" text-anchor="middle" stroke="none" fill="#d33">2</text></g>
    <rect x="8" y="120" width="264" height="96" fill="none" stroke="#d33" stroke-dasharray="6 3" />
    <g transform="translate(286,168)"><circle r="11" fill="#fff" stroke="#d33" stroke-dasharray="4 2" /><text y="4" font-size="12" font-weight="700" text-anchor="middle" stroke="none" fill="#d33">3</text></g>
  </g>
</svg>
