<svg xmlns="http://www.w3.org/2000/svg" width="1280" height="800" viewBox="0 0 1280 800"
     font-family="-apple-system, system-ui, sans-serif" fill="#fff" stroke="#000" stroke-width="1.5">
  <rect x="0" y="0" width="1280" height="800" />

  <text x="48" y="48" font-size="28" font-weight="700" stroke="none" fill="#000">Agents section — two states</text>
  <text x="48" y="80" font-size="14" stroke="none" fill="#666">The AGENTS sidebar section adapts to whether any agents are currently running.</text>

  <!-- ===== STATE A: active agents exist ===== -->
  <text x="48" y="140" font-size="20" font-weight="600" stroke="none" fill="#000">A · Active agents present</text>
  <text x="48" y="164" font-size="12" stroke="none" fill="#666">Show only the agents with live runs.</text>
  <g transform="translate(48,184)">
    <rect width="320" height="220" fill="#fff" stroke="#666" />
    <text x="16" y="32" font-size="12" letter-spacing="1" stroke="none" fill="#666">AGENTS</text>
    <text x="292" y="32" font-size="14" stroke="none" fill="#666">+</text>
    <!-- active rows -->
    <circle cx="24" cy="64" r="9" fill="#e6e6e6" stroke="#666" />
    <text x="44" y="69" font-size="14" stroke="none" fill="#000">ClaudeCoder</text>
    <circle cx="244" cy="64" r="3" fill="#000" stroke="none" />
    <text x="256" y="68" font-size="12" stroke="none" fill="#666">2 live</text>
    <circle cx="24" cy="100" r="9" fill="#e6e6e6" stroke="#666" />
    <text x="44" y="105" font-size="14" stroke="none" fill="#000">QA-Bot</text>
    <circle cx="244" cy="100" r="3" fill="#000" stroke="none" />
    <text x="256" y="104" font-size="12" stroke="none" fill="#666">1 live</text>
    <circle cx="24" cy="136" r="9" fill="#e6e6e6" stroke="#666" />
    <text x="44" y="141" font-size="14" stroke="none" fill="#000">CTO</text>
    <circle cx="244" cy="136" r="3" fill="#000" stroke="none" />
    <text x="256" y="140" font-size="12" stroke="none" fill="#666">1 live</text>
    <line x1="16" y1="172" x2="304" y2="172" stroke="#e6e6e6" />
    <text x="16" y="198" font-size="14" stroke="none" fill="#000">See all agents →</text>
  </g>

  <!-- ===== STATE B: no active agents ===== -->
  <text x="448" y="140" font-size="20" font-weight="600" stroke="none" fill="#000">B · No active agents</text>
  <text x="448" y="164" font-size="12" stroke="none" fill="#666">Fall back to recently-active, capped at 5, with “See all”.</text>
  <g transform="translate(448,184)">
    <rect width="320" height="300" fill="#fff" stroke="#666" />
    <text x="16" y="32" font-size="12" letter-spacing="1" stroke="none" fill="#666">AGENTS</text>
    <text x="292" y="32" font-size="14" stroke="none" fill="#666">+</text>
    <text x="16" y="58" font-size="12" stroke="none" fill="#666">Recently active</text>
    <!-- up to 5 recent rows, no live dot -->
    <circle cx="24" cy="84" r="9" fill="#e6e6e6" stroke="#666" />
    <text x="44" y="89" font-size="14" stroke="none" fill="#666">ClaudeCoder</text>
    <text x="244" y="88" font-size="12" stroke="none" fill="#666">2m ago</text>
    <circle cx="24" cy="116" r="9" fill="#e6e6e6" stroke="#666" />
    <text x="44" y="121" font-size="14" stroke="none" fill="#666">QA-Bot</text>
    <text x="244" y="120" font-size="12" stroke="none" fill="#666">9m ago</text>
    <circle cx="24" cy="148" r="9" fill="#e6e6e6" stroke="#666" />
    <text x="44" y="153" font-size="14" stroke="none" fill="#666">CTO</text>
    <text x="244" y="152" font-size="12" stroke="none" fill="#666">1h ago</text>
    <circle cx="24" cy="180" r="9" fill="#e6e6e6" stroke="#666" />
    <text x="44" y="185" font-size="14" stroke="none" fill="#666">Designer</text>
    <text x="244" y="184" font-size="12" stroke="none" fill="#666">3h ago</text>
    <circle cx="24" cy="212" r="9" fill="#e6e6e6" stroke="#666" />
    <text x="44" y="217" font-size="14" stroke="none" fill="#666">Researcher</text>
    <text x="244" y="216" font-size="12" stroke="none" fill="#666">1d ago</text>
    <line x1="16" y1="248" x2="304" y2="248" stroke="#e6e6e6" />
    <text x="16" y="276" font-size="14" stroke="none" fill="#000">See all agents →</text>
  </g>

  <!-- arrow: See all -> list view -->
  <g transform="translate(800,460)">
    <line x1="0" y1="0" x2="80" y2="0" stroke="#000" />
    <polygon points="80,0 70,-6 70,6" fill="#000" stroke="none" />
    <text x="0" y="-12" font-size="12" stroke="none" fill="#666">See all opens</text>
  </g>
  <g transform="translate(896,184)">
    <rect width="336" height="300" fill="#fff" stroke="#666" />
    <text x="16" y="32" font-size="14" font-weight="600" stroke="none" fill="#000">All agents (list view → 03)</text>
    <rect x="16" y="56" width="304" height="56" fill="#fff" stroke="#666" />
    <circle cx="40" cy="84" r="12" fill="#e6e6e6" stroke="#666" />
    <text x="64" y="80" font-size="12" stroke="none" fill="#000">Agent name + key actions</text>
    <text x="64" y="98" font-size="12" stroke="none" fill="#666">Assign · Heartbeat · Pause · ⋯</text>
    <rect x="16" y="120" width="304" height="56" fill="#fff" stroke="#666" />
    <circle cx="40" cy="148" r="12" fill="#e6e6e6" stroke="#666" />
    <text x="64" y="144" font-size="12" stroke="none" fill="#000">Agent name + key actions</text>
    <text x="64" y="162" font-size="12" stroke="none" fill="#666">Assign · Heartbeat · Resume · ⋯</text>
    <rect x="16" y="184" width="304" height="56" fill="#fff" stroke="#666" />
    <circle cx="40" cy="212" r="12" fill="#e6e6e6" stroke="#666" />
    <text x="64" y="208" font-size="12" stroke="none" fill="#000">Row click → agent detail page</text>
    <text x="64" y="226" font-size="12" stroke="none" fill="#666">(unchanged from today)</text>
  </g>

  <g data-region="annotations">
    <rect x="448" y="368" width="320" height="120" fill="none" stroke="#d33" stroke-dasharray="6 3" />
    <text x="448" y="516" font-size="12" stroke="none" fill="#d33">Recently-active fallback: max 5 rows, sorted by last heartbeat, then “See all”.</text>
  </g>
</svg>
